<mxfile host="app.diagrams.net" modified="2023-06-11T15:10:58.697Z" agent="Mozilla/5.0 (X11; Linux x86_64) AppleWebKit/537.36 (KHTML, like Gecko) Chrome/113.0.0.0 Safari/537.36" etag="Yjy392pKggSZGfspgxMB" version="21.3.2" type="device">
  <diagram name="Page-1" id="ecMjOG_w1cl9KVcuMqSR">
    <mxGraphModel dx="2215" dy="731" grid="1" gridSize="10" guides="1" tooltips="1" connect="1" arrows="1" fold="1" page="1" pageScale="1" pageWidth="827" pageHeight="1169" math="0" shadow="0">
      <root>
        <mxCell id="0" />
        <mxCell id="1" parent="0" />
        <mxCell id="wVxh_3QZJ5kiYyEHW9aZ-1" value="&lt;font style=&quot;font-size: 20px;&quot;&gt;reload \&lt;br&gt;-before &quot;make build&quot; \&lt;br&gt;-after &quot;make cleanup&quot; \&lt;br&gt;-cmd &quot;./myprogram -param1 value1 -param2 value2&quot; \&lt;br&gt;-patterns &quot;pkg/server/*.go pkg/client/*.go&quot;&amp;nbsp;&lt;br&gt;&lt;br&gt;&lt;/font&gt;" style="text;html=1;align=left;verticalAlign=middle;resizable=0;points=[];autosize=1;strokeColor=none;fillColor=none;" vertex="1" parent="1">
          <mxGeometry x="140" width="500" height="160" as="geometry" />
        </mxCell>
        <mxCell id="wVxh_3QZJ5kiYyEHW9aZ-3" value="&lt;font style=&quot;font-size: 20px;&quot;&gt;make build&lt;/font&gt;" style="rounded=0;whiteSpace=wrap;html=1;" vertex="1" parent="1">
          <mxGeometry x="184" y="220" width="230" height="60" as="geometry" />
        </mxCell>
        <mxCell id="wVxh_3QZJ5kiYyEHW9aZ-6" value="" style="endArrow=classic;html=1;rounded=0;entryX=0.5;entryY=0;entryDx=0;entryDy=0;" edge="1" parent="1" target="wVxh_3QZJ5kiYyEHW9aZ-3">
          <mxGeometry width="50" height="50" relative="1" as="geometry">
            <mxPoint x="299" y="140" as="sourcePoint" />
            <mxPoint x="470" y="290" as="targetPoint" />
          </mxGeometry>
        </mxCell>
        <mxCell id="wVxh_3QZJ5kiYyEHW9aZ-7" value="" style="curved=1;endArrow=classic;html=1;rounded=0;entryX=1;entryY=0.75;entryDx=0;entryDy=0;exitX=1;exitY=0.25;exitDx=0;exitDy=0;" edge="1" parent="1" source="wVxh_3QZJ5kiYyEHW9aZ-3" target="wVxh_3QZJ5kiYyEHW9aZ-3">
          <mxGeometry width="50" height="50" relative="1" as="geometry">
            <mxPoint x="430" y="270" as="sourcePoint" />
            <mxPoint x="510" y="300" as="targetPoint" />
            <Array as="points">
              <mxPoint x="500" y="230" />
              <mxPoint x="490" y="260" />
            </Array>
          </mxGeometry>
        </mxCell>
        <mxCell id="wVxh_3QZJ5kiYyEHW9aZ-8" value="&lt;font style=&quot;font-size: 18px;&quot;&gt;1. keep running until done&lt;/font&gt;" style="text;html=1;align=center;verticalAlign=middle;resizable=0;points=[];autosize=1;strokeColor=none;fillColor=none;" vertex="1" parent="1">
          <mxGeometry x="490" y="220" width="230" height="40" as="geometry" />
        </mxCell>
        <mxCell id="wVxh_3QZJ5kiYyEHW9aZ-9" value="&lt;font style=&quot;font-size: 20px;&quot;&gt;./myprogram -param1 value1 ...&lt;/font&gt;" style="rounded=0;whiteSpace=wrap;html=1;" vertex="1" parent="1">
          <mxGeometry x="190" y="400" width="230" height="60" as="geometry" />
        </mxCell>
        <mxCell id="wVxh_3QZJ5kiYyEHW9aZ-11" value="&lt;font style=&quot;font-size: 18px;&quot;&gt;1. keep running until killed&lt;/font&gt;" style="text;html=1;align=center;verticalAlign=middle;resizable=0;points=[];autosize=1;strokeColor=none;fillColor=none;" vertex="1" parent="1">
          <mxGeometry x="500" y="410" width="230" height="40" as="geometry" />
        </mxCell>
        <mxCell id="wVxh_3QZJ5kiYyEHW9aZ-12" value="" style="endArrow=classic;html=1;rounded=0;exitX=0.465;exitY=1.017;exitDx=0;exitDy=0;exitPerimeter=0;" edge="1" parent="1" source="wVxh_3QZJ5kiYyEHW9aZ-3">
          <mxGeometry width="50" height="50" relative="1" as="geometry">
            <mxPoint x="291" y="330" as="sourcePoint" />
            <mxPoint x="290" y="402" as="targetPoint" />
          </mxGeometry>
        </mxCell>
        <mxCell id="wVxh_3QZJ5kiYyEHW9aZ-13" value="" style="whiteSpace=wrap;html=1;aspect=fixed;" vertex="1" parent="1">
          <mxGeometry x="-100" y="380" width="80" height="80" as="geometry" />
        </mxCell>
        <mxCell id="wVxh_3QZJ5kiYyEHW9aZ-14" value="" style="whiteSpace=wrap;html=1;aspect=fixed;" vertex="1" parent="1">
          <mxGeometry x="-90" y="390" width="80" height="80" as="geometry" />
        </mxCell>
        <mxCell id="wVxh_3QZJ5kiYyEHW9aZ-15" value="&lt;font style=&quot;font-size: 18px;&quot;&gt;watched files...&lt;/font&gt;" style="whiteSpace=wrap;html=1;aspect=fixed;" vertex="1" parent="1">
          <mxGeometry x="-80" y="400" width="80" height="80" as="geometry" />
        </mxCell>
        <mxCell id="wVxh_3QZJ5kiYyEHW9aZ-16" value="" style="endArrow=classic;html=1;rounded=0;entryX=0;entryY=0.5;entryDx=0;entryDy=0;exitX=1.013;exitY=0.375;exitDx=0;exitDy=0;exitPerimeter=0;" edge="1" parent="1" source="wVxh_3QZJ5kiYyEHW9aZ-15" target="wVxh_3QZJ5kiYyEHW9aZ-9">
          <mxGeometry width="50" height="50" relative="1" as="geometry">
            <mxPoint x="50" y="400" as="sourcePoint" />
            <mxPoint x="100" y="350" as="targetPoint" />
          </mxGeometry>
        </mxCell>
        <mxCell id="wVxh_3QZJ5kiYyEHW9aZ-17" value="&lt;font style=&quot;font-size: 18px;&quot;&gt;2. file change event&lt;/font&gt;" style="text;html=1;align=center;verticalAlign=middle;resizable=0;points=[];autosize=1;strokeColor=none;fillColor=none;" vertex="1" parent="1">
          <mxGeometry x="5" y="390" width="180" height="40" as="geometry" />
        </mxCell>
        <mxCell id="wVxh_3QZJ5kiYyEHW9aZ-18" value="" style="endArrow=classic;html=1;rounded=0;exitX=0.5;exitY=1;exitDx=0;exitDy=0;entryX=0.5;entryY=0;entryDx=0;entryDy=0;" edge="1" parent="1" source="wVxh_3QZJ5kiYyEHW9aZ-9" target="wVxh_3QZJ5kiYyEHW9aZ-19">
          <mxGeometry width="50" height="50" relative="1" as="geometry">
            <mxPoint x="330" y="600" as="sourcePoint" />
            <mxPoint x="305" y="520" as="targetPoint" />
          </mxGeometry>
        </mxCell>
        <mxCell id="wVxh_3QZJ5kiYyEHW9aZ-19" value="&lt;font style=&quot;font-size: 20px;&quot;&gt;make clean&lt;/font&gt;" style="rounded=0;whiteSpace=wrap;html=1;" vertex="1" parent="1">
          <mxGeometry x="190" y="555" width="230" height="60" as="geometry" />
        </mxCell>
        <mxCell id="wVxh_3QZJ5kiYyEHW9aZ-20" value="&lt;font style=&quot;font-size: 18px;&quot;&gt;3. kill main program and wait for the process to be terminated&lt;/font&gt;" style="text;html=1;align=center;verticalAlign=middle;resizable=0;points=[];autosize=1;strokeColor=none;fillColor=none;" vertex="1" parent="1">
          <mxGeometry x="310" y="490" width="510" height="40" as="geometry" />
        </mxCell>
        <mxCell id="wVxh_3QZJ5kiYyEHW9aZ-21" value="&lt;font style=&quot;font-size: 18px;&quot;&gt;2. start main program&lt;/font&gt;" style="text;html=1;align=center;verticalAlign=middle;resizable=0;points=[];autosize=1;strokeColor=none;fillColor=none;" vertex="1" parent="1">
          <mxGeometry x="290" y="310" width="190" height="40" as="geometry" />
        </mxCell>
        <mxCell id="wVxh_3QZJ5kiYyEHW9aZ-24" value="" style="curved=1;endArrow=classic;html=1;rounded=0;entryX=1;entryY=0.75;entryDx=0;entryDy=0;exitX=1;exitY=0.25;exitDx=0;exitDy=0;" edge="1" parent="1">
          <mxGeometry width="50" height="50" relative="1" as="geometry">
            <mxPoint x="420" y="417.5" as="sourcePoint" />
            <mxPoint x="420" y="447.5" as="targetPoint" />
            <Array as="points">
              <mxPoint x="506" y="412.5" />
              <mxPoint x="496" y="442.5" />
            </Array>
          </mxGeometry>
        </mxCell>
        <mxCell id="wVxh_3QZJ5kiYyEHW9aZ-26" value="" style="curved=1;endArrow=classic;html=1;rounded=0;entryX=1;entryY=0.75;entryDx=0;entryDy=0;exitX=1;exitY=0.25;exitDx=0;exitDy=0;" edge="1" parent="1">
          <mxGeometry width="50" height="50" relative="1" as="geometry">
            <mxPoint x="420" y="565" as="sourcePoint" />
            <mxPoint x="420" y="595" as="targetPoint" />
            <Array as="points">
              <mxPoint x="506" y="560" />
              <mxPoint x="496" y="590" />
            </Array>
          </mxGeometry>
        </mxCell>
        <mxCell id="wVxh_3QZJ5kiYyEHW9aZ-27" value="&lt;font style=&quot;font-size: 18px;&quot;&gt;1. keep running until done&lt;/font&gt;" style="text;html=1;align=center;verticalAlign=middle;resizable=0;points=[];autosize=1;strokeColor=none;fillColor=none;" vertex="1" parent="1">
          <mxGeometry x="500" y="555" width="230" height="40" as="geometry" />
        </mxCell>
        <mxCell id="wVxh_3QZJ5kiYyEHW9aZ-29" value="" style="endArrow=none;html=1;rounded=0;" edge="1" parent="1">
          <mxGeometry width="50" height="50" relative="1" as="geometry">
            <mxPoint x="305" y="720" as="sourcePoint" />
            <mxPoint x="304.5" y="615" as="targetPoint" />
          </mxGeometry>
        </mxCell>
        <mxCell id="wVxh_3QZJ5kiYyEHW9aZ-30" value="" style="endArrow=none;html=1;rounded=0;" edge="1" parent="1">
          <mxGeometry width="50" height="50" relative="1" as="geometry">
            <mxPoint x="-240" y="720" as="sourcePoint" />
            <mxPoint x="300" y="720" as="targetPoint" />
          </mxGeometry>
        </mxCell>
        <mxCell id="wVxh_3QZJ5kiYyEHW9aZ-32" value="" style="endArrow=none;html=1;rounded=0;" edge="1" parent="1">
          <mxGeometry width="50" height="50" relative="1" as="geometry">
            <mxPoint x="-240" y="720" as="sourcePoint" />
            <mxPoint x="-240" y="240" as="targetPoint" />
          </mxGeometry>
        </mxCell>
        <mxCell id="wVxh_3QZJ5kiYyEHW9aZ-33" value="" style="endArrow=classic;html=1;rounded=0;entryX=0.004;entryY=0.383;entryDx=0;entryDy=0;entryPerimeter=0;" edge="1" parent="1" target="wVxh_3QZJ5kiYyEHW9aZ-3">
          <mxGeometry width="50" height="50" relative="1" as="geometry">
            <mxPoint x="-240" y="240" as="sourcePoint" />
            <mxPoint x="-130" y="190" as="targetPoint" />
          </mxGeometry>
        </mxCell>
        <mxCell id="wVxh_3QZJ5kiYyEHW9aZ-34" value="&lt;font style=&quot;font-size: 18px;&quot;&gt;2. rerun&lt;/font&gt;" style="text;html=1;align=center;verticalAlign=middle;resizable=0;points=[];autosize=1;strokeColor=none;fillColor=none;" vertex="1" parent="1">
          <mxGeometry x="-40" y="720" width="90" height="40" as="geometry" />
        </mxCell>
      </root>
    </mxGraphModel>
  </diagram>
</mxfile>
